
<svg xmlns="http://www.w3.org/2000/svg" version="1.1" xmlns:xlink="http://www.w3.org/1999/xlink" preserveAspectRatio="none" x="0px" y="0px" width="100px" height="100px" viewBox="0 0 100 100">
<defs>
<g id="Lock1_0_Layer0_0_FILL">
<path fill="#FFFFFF" stroke="none" d="
M 1.45 -0.55
Q 1.45 -1.1 1.05 -1.5 0.6 -1.95 0 -1.95 -0.6 -1.95 -1.05 -1.5 -1.45 -1.1 -1.45 -0.55 -1.45 0.1 -1.05 0.5 -0.85 0.7 -0.6 0.8
L -1.9 4.55 1.95 4.55 0.6 0.8
Q 0.85 0.7 1.05 0.5 1.45 0.1 1.45 -0.55 Z"/>
</g>

<g id="Lock2_0_Layer0_0_FILL">
<path fill="#FFFFFF" stroke="none" d="
M 1.45 -0.55
Q 1.45 -1.1 1.05 -1.5 0.6 -1.95 0 -1.95 -0.6 -1.95 -1.05 -1.5 -1.45 -1.1 -1.45 -0.55 -1.45 0.1 -1.05 0.5 -0.85 0.7 -0.6 0.8
L -1.9 4.55 1.95 4.55 0.6 0.8
Q 0.85 0.7 1.05 0.5 1.45 0.1 1.45 -0.55 Z"/>
</g>

<g id="Logo_0_Layer1_0_FILL">
<path fill="#015C80" stroke="none" d="
M -61.8 23.2
Q -64.9259765625 23.2 -67.95 22.95 -73.75 36.6404296875 -73.75 52.7 -73.75 84.1 -51.55 106.3 -29.3 128.6 2.15 128.6 33.55 128.6 55.75 106.3 78.05 84.1 78.05 52.7 78.05 36.4015625 72.05 22.55 67.0541015625 23.2 61.8 23.2 30.35 23.2 8.1 0.9 3.572265625 -3.627734375 -0.05 -8.55 -3.651953125 -3.627734375 -8.2 0.9 -30.4 23.2 -61.8 23.2
M 3.3 -23.2
Q 3.1578125 -23.2 3 -23.2 3.520703125 -23.1884765625 4 -23.2 3.6615234375 -23.1939453125 3.3 -23.2
M 42.55 -11.7
Q 42.3474609375 -11.853515625 42.1 -12 41.6173828125 -12.321875 41.1 -12.65 41.837109375 -12.175 42.55 -11.7
M 37.45 -14.7
Q 38.0361328125 -14.4005859375 38.6 -14.1 38.265234375 -14.2865234375 37.9 -14.5 37.7064453125 -14.5935546875 37.45 -14.7 Z"/>

<path fill="#88004F" stroke="none" d="
M -8.75 -24.1
Q -8.4529296875 -23.3337890625 -8.15 -22.6
L -8.1 -22.6
Q -8.4310546875 -23.3375 -8.75 -24.1
M 61.8 -128.6
Q 30.35 -128.6 8.1 -106.4 3.572265625 -101.862109375 -0.05 -96.95 14.1 -77.7357421875 14.1 -52.7 14.1 -36.6345703125 8.25 -23 11.8748046875 -22.7169921875 15.35 -22.15 15.47578125 -22.12109375 15.6 -22.1 17.4916015625 -21.7705078125 19.35 -21.35 20.263671875 -21.155078125 21.15 -20.95 22.36171875 -20.6349609375 23.5 -20.3 23.8015625 -20.2306640625 24.05 -20.15 25.151171875 -19.8306640625 26.2 -19.5 27.6419921875 -19.0216796875 29 -18.5 29.3640625 -18.38046875 29.7 -18.25 30.046484375 -18.1166015625 30.4 -18 32.103125 -17.29921875 33.75 -16.55 34.5673828125 -16.161328125 35.35 -15.8 35.4341796875 -15.7419921875 35.5 -15.7
L 35.55 -15.7
Q 36.5349609375 -15.2029296875 37.45 -14.7 37.7064453125 -14.5935546875 37.9 -14.5 38.265234375 -14.2865234375 38.6 -14.1 38.73515625 -14.0203125 38.85 -13.95
L 39.05 -13.85
Q 40.0953125 -13.23984375 41.1 -12.65 41.6173828125 -12.321875 42.1 -12 42.3474609375 -11.853515625 42.55 -11.7
L 42.9 -11.5
Q 43.033203125 -11.4017578125 43.15 -11.35
L 43.65 -11
Q 43.9220703125 -10.8224609375 44.15 -10.65 44.4375 -10.473046875 44.7 -10.3
L 45.2 -9.95
Q 49.8009765625 -6.68046875 54.05 -2.65 54.601953125 -2.1369140625 55.15 -1.6 55.451171875 -1.298828125 55.75 -1 66.493359375 9.7193359375 72.05 22.55 96.91875 19.464453125 115.4 0.9 137.7 -21.3 137.7 -52.7 137.7 -84.15 115.4 -106.4 93.2 -128.6 61.8 -128.6 Z"/>

<path fill="#06B200" stroke="none" d="
M -0.05 -8.55
Q -4.9189453125 -15.209765625 -8.1 -22.6
L -8.15 -22.6
Q -33.023046875 -19.4853515625 -51.55 -1 -62.4138671875 9.88828125 -67.95 22.95 -64.9259765625 23.2 -61.8 23.2 -30.4 23.2 -8.2 0.9 -3.651953125 -3.627734375 -0.05 -8.55 Z"/>

<path fill="#101010" stroke="none" d="
M 8.25 -23
Q 8.0748046875 -22.98984375 7.85 -23 5.95 -23.0875 4 -23.2 3.520703125 -23.1884765625 3 -23.2
L 2.15 -23.2
Q -3.099609375 -23.2 -8.1 -22.6 -4.9189453125 -15.209765625 -0.05 -8.55 5.0216796875 -15.393359375 8.25 -23 Z"/>

<path fill="#FE0E00" stroke="none" d="
M 7.85 -23
Q 8.0748046875 -22.98984375 8.25 -23 14.1 -36.6345703125 14.1 -52.7 14.1 -77.7357421875 -0.05 -96.95 -14.1 -77.7357421875 -14.1 -52.7 -14.1 -52.4443359375 -14.1 -52.2 -14.09921875 -52.0748046875 -14.1 -51.95 -14.09453125 -51.3267578125 -14.1 -50.7 -14.0529296875 -49.73046875 -14 -48.8 -13.421875 -36.4375 -8.75 -24.1 -8.4310546875 -23.3375 -8.1 -22.6 -3.099609375 -23.2 2.15 -23.2
L 3 -23.2
Q 3.1578125 -23.2 3.3 -23.2 3.6615234375 -23.1939453125 4 -23.2 5.95 -23.0875 7.85 -23 Z"/>

<path fill="#120094" stroke="none" d="
M 19.35 -21.35
Q 17.4916015625 -21.7705078125 15.6 -22.1 15.47578125 -22.12109375 15.35 -22.15 11.8748046875 -22.7169921875 8.25 -23 5.0216796875 -15.393359375 -0.05 -8.55 3.572265625 -3.627734375 8.1 0.9 30.35 23.2 61.8 23.2 67.0541015625 23.2 72.05 22.55 66.493359375 9.7193359375 55.75 -1 55.451171875 -1.298828125 55.15 -1.6 54.601953125 -2.1369140625 54.05 -2.65 49.8009765625 -6.68046875 45.2 -9.95
L 44.7 -10.3
Q 44.4375 -10.473046875 44.15 -10.65 43.9220703125 -10.8224609375 43.65 -11
L 43.15 -11.35
Q 43.033203125 -11.4017578125 42.9 -11.5
L 42.55 -11.7
Q 41.837109375 -12.175 41.1 -12.65 40.0953125 -13.23984375 39.05 -13.85
L 38.85 -13.95
Q 38.73515625 -14.0203125 38.6 -14.1 38.0361328125 -14.4005859375 37.45 -14.7 36.5349609375 -15.2029296875 35.55 -15.7
L 35.5 -15.7
Q 35.4341796875 -15.7419921875 35.35 -15.8 34.5673828125 -16.161328125 33.75 -16.55 32.103125 -17.29921875 30.4 -18 30.046484375 -18.1166015625 29.7 -18.25 29.3640625 -18.38046875 29 -18.5 27.6419921875 -19.0216796875 26.2 -19.5 25.151171875 -19.8306640625 24.05 -20.15 23.8015625 -20.2306640625 23.5 -20.3 22.36171875 -20.6349609375 21.15 -20.95 20.263671875 -21.155078125 19.35 -21.35 Z"/>

<path fill="#828700" stroke="none" d="
M -8.2 -106.4
Q -30.4 -128.6 -61.8 -128.6 -93.25 -128.6 -115.5 -106.4 -137.7 -84.15 -137.7 -52.7 -137.7 -21.3 -115.5 0.9 -95.4615234375 20.9833984375 -67.95 22.95 -62.4138671875 9.88828125 -51.55 -1 -33.023046875 -19.4853515625 -8.15 -22.6 -8.4529296875 -23.3337890625 -8.75 -24.1 -13.421875 -36.4375 -14 -48.8 -14.0529296875 -49.73046875 -14.1 -50.7 -14.09453125 -51.3267578125 -14.1 -51.95 -14.09921875 -52.0748046875 -14.1 -52.2 -14.1 -52.4443359375 -14.1 -52.7 -14.1 -77.7357421875 -0.05 -96.95 -3.651953125 -101.862109375 -8.2 -106.4 Z"/>
</g>

<path id="Lock1_0_Layer1_0_1_STROKES" stroke="#FFFFFF" stroke-width="1" stroke-linejoin="miter" stroke-linecap="round" stroke-miterlimit="3" fill="none" d="
M -3.9 -5.95
L -3.9 -9.2
Q -3.9 -10.8 -2.75 -11.95 -1.6 -13.1 0 -13.1
L 0.05 -13.1
Q 1.65 -13.1 2.8 -11.95 3.95 -10.8 3.95 -9.2
L 3.95 -5.95 5.3 -5.95 6.4 -4.15 6.4 6.8 -6.35 6.8 -6.35 -4.15 -5.25 -5.95 -3.9 -5.95 3.95 -5.95"/>

<path id="Lock2_0_Layer1_0_1_STROKES" stroke="#FFFFFF" stroke-width="1" stroke-linejoin="miter" stroke-linecap="round" stroke-miterlimit="3" fill="none" d="
M -3.9 -9.2
Q -3.9 -10.8 -2.75 -11.95 -1.6 -13.1 0.05 -13.1 1.65 -13.1 2.8 -11.95 3.95 -10.8 3.95 -9.2
L 3.95 -5.95 5.3 -5.95 6.4 -4.15 6.4 6.8 -6.35 6.8 -6.35 -4.15 -5.25 -5.95 3.95 -5.95"/>

<path id="Arrow_0_Layer0_0_1_STROKES" stroke="#FFFFFF" stroke-width="1" stroke-linejoin="miter" stroke-linecap="round" stroke-miterlimit="3" fill="none" d="
M -2.8 -9.85
L 2.9 -9.85
Q 3.75 -9.85 3.75 -9
L 3.75 1.5
Q 3.75 2 4.25 2
L 6.6 2
Q 7.4 2 6.75 2.7
L 0.65 9.65
Q 0.05 10.15 -0.5 9.6
L -6.7 2.95
Q -7.35 2.25 -6.55 2.2
L -4.05 2.2
Q -3.65 2.2 -3.65 1.7
L -3.65 -9
Q -3.65 -9.85 -2.8 -9.85 Z"/>
</defs>

<g transform="matrix( 1.14178466796875, 0, 0, 1.14178466796875, 33.4,-13.95) ">
<g transform="matrix( 1, 0, 0, 1, 0,0) ">
<use xlink:href="#Lock1_0_Layer1_0_1_STROKES"/>
</g>

<g transform="matrix( 1, 0, 0, 1, 0,0) ">
<use xlink:href="#Lock1_0_Layer0_0_FILL"/>
</g>
</g>

<g transform="matrix( 1.14178466796875, 0, 0, 1.14178466796875, -70,-3.95) ">
<g transform="matrix( 1, 0, 0, 1, 0,0) ">
<use xlink:href="#Lock2_0_Layer1_0_1_STROKES"/>
</g>

<g transform="matrix( 1, 0, 0, 1, 0,0) ">
<use xlink:href="#Lock2_0_Layer0_0_FILL"/>
</g>
</g>

<g transform="matrix( 1.144622802734375, 0, 0, 1.144622802734375, -30.1,11.85) ">
<g transform="matrix( 1, 0, 0, 1, 0,0) ">
<use xlink:href="#Arrow_0_Layer0_0_1_STROKES"/>
</g>
</g>

<g transform="matrix( 0.3631134033203125, 0, 0, 0.3888092041015625, 50,50) ">
<g transform="matrix( 1, 0, 0, 1, 0,0) ">
<use xlink:href="#Logo_0_Layer1_0_FILL"/>
</g>
</g>
</svg>
